<svg width="147" height="64" viewBox="0 0 147 64" fill="none" xmlns="http://www.w3.org/2000/svg">
<g clip-path="url(#clip0_1075_891)">
<path d="M21.2903 26.5902C19.2939 25.3083 17.192 24.6683 14.8808 24.6683C9.9946 24.6683 5.89634 28.2458 5.89634 33.6398C5.89634 39.0338 10.0474 42.6113 14.9336 42.6113C17.3504 42.6113 19.2411 42.1304 21.3431 41.0094L20.9227 44.6942C19.1884 45.5488 17.0355 45.9761 14.6169 45.9761C7.99637 45.9761 2.00732 41.2221 2.00732 33.5862C2.00732 25.9502 7.94358 21.1426 14.6169 21.1426C17.6652 21.1426 20.1856 21.8899 22.0783 22.9591L21.2903 26.5902Z" fill="white"/>
<path d="M36.4368 45.1931L36.0183 41.2132C35.7186 41.4681 35.3642 41.6769 34.9758 41.8302C33.2132 42.5201 31.2829 41.1902 31.2716 39.2702C31.2716 39.2607 31.2716 39.2492 31.2716 39.2396V8.01562H27.2261V38.1186C27.2487 40.2207 27.1111 42.3342 28.4589 44.0971C30.3629 46.5881 33.9447 47.025 36.4387 45.195L36.4368 45.1931Z" fill="white"/>
<path d="M49.9753 46.2451C42.8816 46.2451 37.3657 41.0121 37.3657 33.5888C37.3657 26.1656 42.8816 20.8789 49.9753 20.8789C57.069 20.8789 62.5321 26.112 62.5321 33.5888C62.5321 41.0657 57.0672 46.2451 49.9753 46.2451ZM49.9753 24.6154C45.2983 24.6154 41.464 28.3002 41.464 33.6942C41.464 39.0883 45.3002 42.6657 49.9753 42.6657C54.6504 42.6657 58.4339 39.0346 58.4339 33.6942C58.4339 28.3539 54.5976 24.6154 49.9753 24.6154Z" fill="white"/>
<path d="M78.9236 46.2451C71.8298 46.2451 66.314 41.0121 66.314 33.5888C66.314 26.1656 71.8298 20.8789 78.9236 20.8789C86.0173 20.8789 91.4804 26.112 91.4804 33.5888C91.4804 41.0657 86.0154 46.2451 78.9236 46.2451ZM78.9236 24.6154C74.2466 24.6154 70.4122 28.3002 70.4122 33.6942C70.4122 39.0883 74.2485 42.6657 78.9236 42.6657C83.5987 42.6657 87.3821 39.0346 87.3821 33.6942C87.3821 28.3539 83.5459 24.6154 78.9236 24.6154Z" fill="white"/>
<path d="M107.136 46.2451C104.299 46.2451 101.409 45.0705 100.412 43.9496V57.9951H96.3667V21.4653H100.203V24.1364H100.256C101.359 22.5345 103.775 20.8789 107.611 20.8789C113.233 20.8789 119.275 25.4183 119.275 33.5352C119.275 40.9584 114.074 46.2451 107.138 46.2451H107.136ZM106.769 24.6154C103.67 24.6154 101.462 26.2174 100.412 27.7656V40.0482C101.359 41.1156 103.511 42.6657 106.769 42.6657C111.446 42.6657 115.175 38.9809 115.175 33.6406C115.175 28.3002 111.444 24.6154 106.769 24.6154Z" fill="white"/>
<path d="M134.93 46.2451C132.093 46.2451 129.203 45.0705 128.206 43.9496V57.9951H124.161V21.4653H127.997V24.1364H128.05C129.152 22.5345 131.569 20.8789 135.405 20.8789C141.027 20.8789 147.069 25.4183 147.069 33.5352C147.069 40.9584 141.868 46.2451 134.932 46.2451H134.93ZM134.563 24.6154C131.464 24.6154 129.256 26.2174 128.206 27.7656V40.0482C129.152 41.1156 131.305 42.6657 134.563 42.6657C139.24 42.6657 142.969 38.9809 142.969 33.6406C142.969 28.3002 139.238 24.6154 134.563 24.6154Z" fill="white"/>
</g>
<defs>
<clipPath id="clip0_1075_891">
<rect width="146.286" height="64" fill="white" transform="translate(0.687012)"/>
</clipPath>
</defs>
</svg>
